<svg width="23" height="22" viewBox="0 0 23 22" fill="none"
    xmlns="http://www.w3.org/2000/svg">
    <g filter="url(#filter0_d_174_12)">
        <path d="M16.75 10.5396H11.5416V15.7479C11.5416 16.0242 11.4319 16.2891 11.2365 16.4845C11.0412 16.6798 10.7762 16.7896 10.5 16.7896C10.2237 16.7896 9.95876 16.6798 9.76341 16.4845C9.56806 16.2891 9.45831 16.0242 9.45831 15.7479V10.5396H4.24998C3.97371 10.5396 3.70876 10.4298 3.51341 10.2345C3.31806 10.0391 3.20831 9.77417 3.20831 9.4979C3.20831 9.22164 3.31806 8.95669 3.51341 8.76133C3.70876 8.56598 3.97371 8.45624 4.24998 8.45624H9.45831V3.2479C9.45831 2.97164 9.56806 2.70668 9.76341 2.51133C9.95876 2.31598 10.2237 2.20624 10.5 2.20624C10.7762 2.20624 11.0412 2.31598 11.2365 2.51133C11.4319 2.70668 11.5416 2.97164 11.5416 3.2479V8.45624H16.75C17.0262 8.45624 17.2912 8.56598 17.4865 8.76133C17.6819 8.95669 17.7916 9.22164 17.7916 9.4979C17.7916 9.77417 17.6819 10.0391 17.4865 10.2345C17.2912 10.4298 17.0262 10.5396 16.75 10.5396Z" fill="white"/>
    </g>
    <defs>
        <filter id="filter0_d_174_12" x="0.208313" y="0.206238" width="22.5833" height="22.5833" filterUnits="userSpaceOnUse" color-interpolation-filters="sRGB">
            <feFlood flood-opacity="0" result="BackgroundImageFix"/>
            <feColorMatrix in="SourceAlpha" type="matrix" values="0 0 0 0 0 0 0 0 0 0 0 0 0 0 0 0 0 0 127 0" result="hardAlpha"/>
            <feOffset dx="1" dy="2"/>
            <feGaussianBlur stdDeviation="2"/>
            <feComposite in2="hardAlpha" operator="out"/>
            <feColorMatrix type="matrix" values="0 0 0 0 0 0 0 0 0 0 0 0 0 0 0 0 0 0 0.15 0"/>
            <feBlend mode="normal" in2="BackgroundImageFix" result="effect1_dropShadow_174_12"/>
            <feBlend mode="normal" in="SourceGraphic" in2="effect1_dropShadow_174_12" result="shape"/>
        </filter>
    </defs>
</svg>
