<svg width="80" height="80" viewBox="0 0 81 84" fill="none"
    xmlns="http://www.w3.org/2000/svg">
    <g filter="url(#filter0_d_91_71)">
        <circle cx="36" cy="36" r="30" fill="white"/>
    </g>
    <path d="M36 6C19.41 6 6 19.41 6 36C6 52.59 19.41 66 36 66C52.59 66 66 52.59 66 36C66 19.41 52.59 6 36 6ZM48.9 48.9C48.6225 49.1781 48.2928 49.3987 47.9299 49.5493C47.567 49.6998 47.1779 49.7773 46.785 49.7773C46.3921 49.7773 46.003 49.6998 45.6401 49.5493C45.2772 49.3987 44.9475 49.1781 44.67 48.9L36 40.23L27.33 48.9C26.7691 49.4609 26.0083 49.7761 25.215 49.7761C24.4217 49.7761 23.6609 49.4609 23.1 48.9C22.5391 48.3391 22.2239 47.5783 22.2239 46.785C22.2239 46.3922 22.3013 46.0033 22.4516 45.6404C22.6019 45.2775 22.8223 44.9477 23.1 44.67L31.77 36L23.1 27.33C22.5391 26.7691 22.2239 26.0083 22.2239 25.215C22.2239 24.4217 22.5391 23.6609 23.1 23.1C23.6609 22.5391 24.4217 22.2239 25.215 22.2239C26.0083 22.2239 26.7691 22.5391 27.33 23.1L36 31.77L44.67 23.1C44.9477 22.8223 45.2775 22.6019 45.6404 22.4516C46.0033 22.3013 46.3922 22.2239 46.785 22.2239C47.1778 22.2239 47.5667 22.3013 47.9296 22.4516C48.2925 22.6019 48.6222 22.8223 48.9 23.1C49.1777 23.3777 49.3981 23.7075 49.5484 24.0704C49.6987 24.4333 49.7761 24.8222 49.7761 25.215C49.7761 25.6078 49.6987 25.9967 49.5484 26.3596C49.3981 26.7225 49.1777 27.0523 48.9 27.33L40.23 36L48.9 44.67C50.04 45.81 50.04 47.73 48.9 48.9Z" fill="#FF3A3A"/>
    <defs>
        <filter id="filter0_d_91_71" x="1" y="4" width="80" height="80" filterUnits="userSpaceOnUse" color-interpolation-filters="sRGB">
            <feFlood flood-opacity="0" result="BackgroundImageFix"/>
            <feColorMatrix in="SourceAlpha" type="matrix" values="0 0 0 0 0 0 0 0 0 0 0 0 0 0 0 0 0 0 127 0" result="hardAlpha"/>
            <feOffset dx="5" dy="8"/>
            <feGaussianBlur stdDeviation="5"/>
            <feComposite in2="hardAlpha" operator="out"/>
            <feColorMatrix type="matrix" values="0 0 0 0 0 0 0 0 0 0 0 0 0 0 0 0 0 0 0.15 0"/>
            <feBlend mode="normal" in2="BackgroundImageFix" result="effect1_dropShadow_91_71"/>
            <feBlend mode="normal" in="SourceGraphic" in2="effect1_dropShadow_91_71" result="shape"/>
        </filter>
    </defs>
</svg>
