<svg width="133" height="122" viewBox="0 0 133 122" fill="none" xmlns="http://www.w3.org/2000/svg">
<g filter="url(#filter0_d_17_24)">
<path d="M105.243 31.4659C106.002 31.7696 106.5 32.505 106.5 33.3228V89.875C106.5 90.9796 105.605 91.875 104.5 91.875H97.25C96.1454 91.875 95.25 90.9796 95.25 89.875V48.875C95.25 47.7704 94.3546 46.875 93.25 46.875H29.75C28.6454 46.875 27.75 47.7704 27.75 48.875V89.875C27.75 90.9796 26.8546 91.875 25.75 91.875H18.5C17.3954 91.875 16.5 90.9796 16.5 89.875V33.3228C16.5 32.505 16.9979 31.7696 17.7572 31.4659L60.7572 14.2659C61.234 14.0751 61.766 14.0751 62.2428 14.2659L105.243 31.4659ZM115.75 103.125C116.855 103.125 117.75 102.23 117.75 101.125V25.7291C117.75 24.9113 117.252 24.1758 116.493 23.8721L62.2428 2.17211C61.766 1.98138 61.234 1.98138 60.7572 2.17211L6.50722 23.8721C5.7479 24.1758 5.25 24.9113 5.25 25.7291V101.125C5.25 102.23 6.14543 103.125 7.25 103.125H37C38.1046 103.125 39 102.23 39 101.125V60.125C39 59.0204 39.8954 58.125 41 58.125H82C83.1046 58.125 84 59.0204 84 60.125V101.125C84 102.23 84.8954 103.125 86 103.125H115.75ZM55.875 93.875C55.875 92.7704 54.9796 91.875 53.875 91.875H46.625C45.5204 91.875 44.625 92.7704 44.625 93.875V101.125C44.625 102.23 45.5204 103.125 46.625 103.125H53.875C54.9796 103.125 55.875 102.23 55.875 101.125V93.875ZM67.125 77C67.125 75.8954 66.2296 75 65.125 75H57.875C56.7704 75 55.875 75.8954 55.875 77V84.25C55.875 85.3546 56.7704 86.25 57.875 86.25H65.125C66.2296 86.25 67.125 85.3546 67.125 84.25V77ZM78.375 93.875C78.375 92.7704 77.4796 91.875 76.375 91.875H69.125C68.0204 91.875 67.125 92.7704 67.125 93.875V101.125C67.125 102.23 68.0204 103.125 69.125 103.125H76.375C77.4796 103.125 78.375 102.23 78.375 101.125V93.875Z" fill="white"/>
</g>
<defs>
<filter id="filter0_d_17_24" x="0.25" y="0.029068" width="132.5" height="121.096" filterUnits="userSpaceOnUse" color-interpolation-filters="sRGB">
<feFlood flood-opacity="0" result="BackgroundImageFix"/>
<feColorMatrix in="SourceAlpha" type="matrix" values="0 0 0 0 0 0 0 0 0 0 0 0 0 0 0 0 0 0 127 0" result="hardAlpha"/>
<feOffset dx="5" dy="8"/>
<feGaussianBlur stdDeviation="5"/>
<feComposite in2="hardAlpha" operator="out"/>
<feColorMatrix type="matrix" values="0 0 0 0 0 0 0 0 0 0 0 0 0 0 0 0 0 0 0.15 0"/>
<feBlend mode="normal" in2="BackgroundImageFix" result="effect1_dropShadow_17_24"/>
<feBlend mode="normal" in="SourceGraphic" in2="effect1_dropShadow_17_24" result="shape"/>
</filter>
</defs>
</svg>
