<svg width="43" height="40" viewBox="0 0 43 40" fill="none" xmlns="http://www.w3.org/2000/svg">
<g filter="url(#filter0_d_26_539)">
<path d="M31.0938 6.90626C29.5222 5.32051 27.6145 4.10803 25.5115 3.35836C23.4086 2.6087 21.164 2.34099 18.9438 2.57501C12.0625 3.26876 6.40001 8.85626 5.63126 15.7375C4.60001 24.8313 11.6313 32.5 20.5 32.5C23.3315 32.5 26.1048 31.6966 28.4978 30.1831C30.8908 28.6697 32.8053 26.5082 34.0188 23.95C34.6188 22.6938 33.7188 21.25 32.3313 21.25C31.6375 21.25 30.9813 21.625 30.6813 22.2438C29.5926 24.5857 27.7307 26.4812 25.4086 27.6115C23.0865 28.7418 20.446 29.0379 17.9313 28.45C13.7688 27.5313 10.4125 24.1375 9.53126 19.975C9.16082 18.3292 9.16511 16.6213 9.54381 14.9774C9.92251 13.3335 10.6659 11.7958 11.7191 10.478C12.7723 9.16018 14.1082 8.096 15.6281 7.36417C17.1481 6.63233 18.8131 6.25155 20.5 6.25001C23.6125 6.25001 26.3875 7.54376 28.4125 9.58751L25.5813 12.4188C24.4 13.6 25.225 15.625 26.8938 15.625H33.625C34.6563 15.625 35.5 14.7813 35.5 13.75V7.01876C35.5 5.35001 33.475 4.50626 32.2938 5.68751L31.0938 6.90626Z" fill="white"/>
</g>
<defs>
<filter id="filter0_d_26_539" x="0.53064" y="0.492889" width="49.9694" height="50.0071" filterUnits="userSpaceOnUse" color-interpolation-filters="sRGB">
<feFlood flood-opacity="0" result="BackgroundImageFix"/>
<feColorMatrix in="SourceAlpha" type="matrix" values="0 0 0 0 0 0 0 0 0 0 0 0 0 0 0 0 0 0 127 0" result="hardAlpha"/>
<feOffset dx="5" dy="8"/>
<feGaussianBlur stdDeviation="5"/>
<feComposite in2="hardAlpha" operator="out"/>
<feColorMatrix type="matrix" values="0 0 0 0 0 0 0 0 0 0 0 0 0 0 0 0 0 0 0.15 0"/>
<feBlend mode="normal" in2="BackgroundImageFix" result="effect1_dropShadow_26_539"/>
<feBlend mode="normal" in="SourceGraphic" in2="effect1_dropShadow_26_539" result="shape"/>
</filter>
</defs>
</svg>
