<svg width="80" height="80" viewBox="0 0 80 80" fill="none"
    xmlns="http://www.w3.org/2000/svg">
    <g filter="url(#filter0_d_91_68)">
        <circle cx="35" cy="32" r="30" fill="#5FBF2B"/>
    </g>
    <path d="M29.7502 38.5905L24.0311 32.8714C23.6101 32.4504 23.0391 32.2139 22.4438 32.2139C21.8484 32.2139 21.2774 32.4504 20.8565 32.8714C20.4355 33.2924 20.199 33.8633 20.199 34.4587C20.199 34.7535 20.257 35.0454 20.3698 35.3177C20.4827 35.5901 20.648 35.8376 20.8565 36.046L28.1715 43.361C29.0492 44.2388 30.4683 44.2388 31.3461 43.361L49.8611 24.846C50.282 24.425 50.5185 23.8541 50.5185 23.2587C50.5185 22.6634 50.282 22.0924 49.8611 21.6714C49.4401 21.2504 48.8691 21.0139 48.2738 21.0139C47.6784 21.0139 47.1074 21.2504 46.6865 21.6714L29.7502 38.5905Z" fill="white" stroke="white"/>
    <defs>
        <filter id="filter0_d_91_68" x="0" y="0" width="80" height="80" filterUnits="userSpaceOnUse" color-interpolation-filters="sRGB">
            <feFlood flood-opacity="0" result="BackgroundImageFix"/>
            <feColorMatrix in="SourceAlpha" type="matrix" values="0 0 0 0 0 0 0 0 0 0 0 0 0 0 0 0 0 0 127 0" result="hardAlpha"/>
            <feOffset dx="5" dy="8"/>
            <feGaussianBlur stdDeviation="5"/>
            <feComposite in2="hardAlpha" operator="out"/>
            <feColorMatrix type="matrix" values="0 0 0 0 0 0 0 0 0 0 0 0 0 0 0 0 0 0 0.15 0"/>
            <feBlend mode="normal" in2="BackgroundImageFix" result="effect1_dropShadow_91_68"/>
            <feBlend mode="normal" in="SourceGraphic" in2="effect1_dropShadow_91_68" result="shape"/>
        </filter>
    </defs>
</svg>
